<?xml version="1.0" standalone="no"?>
<!DOCTYPE svg PUBLIC "-//W3C//DTD SVG 20010904//EN"
 "http://www.w3.org/TR/2001/REC-SVG-20010904/DTD/svg10.dtd">
<svg version="1.0" xmlns="http://www.w3.org/2000/svg"
 width="1024.000000pt" height="1024.000000pt" viewBox="0 0 1024.000000 1024.000000"
 preserveAspectRatio="xMidYMid meet" style="background-color:white">

<g transform="translate(0.000000,1024.000000) scale(0.100000,-0.100000)"
fill="#000000" stroke="none">
<path d="M4410 8907 c-128 -16 -356 -61 -421 -82 -72 -25 -185 -82 -233 -119
-17 -12 -53 -35 -81 -51 -27 -15 -66 -41 -86 -59 -20 -17 -65 -53 -100 -81
-74 -59 -114 -99 -218 -217 -125 -142 -154 -180 -200 -253 -24 -38 -58 -92
-75 -120 -42 -67 -144 -275 -168 -344 -23 -66 -16 -42 -71 -261 -38 -151 -50
-214 -72 -385 -2 -16 -4 -30 -5 -30 -6 0 -50 -380 -50 -435 l0 -40 -267 2
-268 3 -5 150 -5 151 -70 104 c-38 57 -92 141 -120 186 -118 195 -182 298
-210 342 -16 25 -45 73 -64 107 -19 33 -59 98 -89 145 -31 47 -67 107 -82 135
-23 44 -31 51 -65 57 -58 10 -837 9 -854 -1 -8 -5 -11 -16 -6 -30 3 -12 2 -21
-4 -21 -5 0 -11 10 -13 23 -3 19 -10 22 -53 25 -27 1 -77 -3 -110 -11 -88 -20
-95 -37 -102 -281 -5 -171 -4 -196 12 -229 23 -49 56 -65 151 -73 137 -11 204
22 245 121 l23 55 322 0 323 0 42 -72 c24 -40 50 -82 59 -93 9 -11 29 -45 44
-75 16 -30 39 -68 51 -85 12 -16 46 -73 75 -125 29 -52 68 -115 85 -140 18
-25 45 -67 60 -95 95 -170 135 -244 135 -254 0 -8 -126 -11 -453 -11 l-453 0
-34 37 c-19 20 -59 47 -90 61 -46 21 -69 25 -146 24 -138 -1 -224 -45 -293
-148 -34 -51 -40 -106 -21 -175 15 -52 79 -120 146 -154 54 -27 68 -30 159
-30 120 0 186 20 235 70 l34 35 453 0 c249 0 453 -3 453 -6 0 -6 -209 -341
-315 -504 -36 -56 -104 -168 -181 -297 -12 -19 -34 -47 -48 -62 l-26 -26 -317
-3 -316 -3 -42 46 c-24 25 -51 45 -63 45 -11 0 -29 11 -39 24 -20 26 -87 44
-98 26 -9 -15 -28 -12 -22 4 8 19 -36 15 -60 -6 -17 -14 -53 -31 -63 -28 -2 1
-8 -9 -13 -22 -6 -14 -11 -18 -14 -10 -8 22 -33 -7 -33 -38 0 -15 -7 -33 -16
-41 -37 -31 -49 -72 -49 -179 0 -87 3 -111 20 -139 11 -18 24 -42 30 -52 5
-11 14 -19 20 -19 5 0 35 -12 65 -27 30 -14 63 -30 72 -35 29 -13 97 -9 131 8
28 15 84 17 447 19 228 2 429 3 447 4 28 1 37 9 73 69 23 37 58 94 80 127 21
33 50 83 65 110 15 28 32 56 38 64 6 7 16 22 22 32 33 61 115 195 160 264 28
44 75 118 104 165 28 47 69 112 91 145 75 115 74 112 78 233 l4 112 277 -2
276 -3 7 -100 c10 -152 54 -449 102 -690 44 -219 63 -329 76 -440 6 -49 26
-154 45 -231 26 -107 35 -163 35 -229 0 -147 49 -280 138 -372 23 -25 42 -49
42 -54 0 -5 5 -9 11 -9 5 0 34 -11 62 -24 139 -65 242 -90 411 -102 l108 -7
19 -45 c11 -25 28 -82 38 -126 20 -84 63 -242 86 -311 24 -71 124 -306 144
-339 11 -17 34 -56 50 -87 16 -30 36 -61 45 -68 9 -8 16 -19 16 -25 0 -22 155
-172 225 -218 62 -40 267 -134 350 -160 70 -21 222 -39 393 -45 l184 -6 0 319
c1 1039 4 1636 9 2244 6 574 5 592 -1 110 -4 -316 -10 -586 -13 -599 -12 -45
-19 -775 -10 -1026 5 -137 6 -281 2 -320 -5 -58 -6 -45 -10 80 -10 382 -12
408 -19 230 -4 -88 -8 -344 -9 -568 l-1 -409 -142 6 c-236 9 -340 31 -553 118
-139 56 -159 67 -244 131 -45 35 -161 173 -161 193 0 3 -21 46 -46 97 -57 114
-100 255 -205 667 -18 72 -40 150 -60 216 l-9 30 -123 1 c-147 1 -189 7 -287
40 -96 33 -125 47 -180 91 -116 92 -156 160 -194 327 -13 61 -34 146 -46 190
-25 92 -30 117 -65 312 -15 79 -28 153 -31 165 -2 13 -13 82 -24 153 -11 72
-29 182 -40 245 -60 341 -65 393 -62 657 1 156 -2 254 -8 258 -29 18 11 496
54 650 3 11 12 61 22 110 20 112 48 210 84 300 16 39 36 95 46 125 9 30 41
102 70 159 30 57 54 107 54 111 0 8 90 162 100 170 3 3 17 21 30 40 82 120
293 341 398 418 140 102 211 150 268 182 34 19 79 47 100 61 153 102 678 145
991 80 128 -26 212 -57 240 -87 22 -24 22 -25 22 -441 1 -238 5 -435 11 -458
16 -67 25 -952 12 -1211 -13 -258 -21 -551 -22 -791 0 -102 -4 -163 -10 -163
-5 0 -11 19 -12 43 -1 36 -2 38 -5 10 -2 -18 -6 -33 -9 -33 -8 0 -34 23 -73
63 -20 21 -51 45 -68 55 -17 9 -51 28 -74 41 -136 75 -265 315 -229 426 12 37
6 183 -9 198 -15 15 -28 0 -35 -40 -12 -65 -17 -75 -35 -70 -11 3 -17 -2 -18
-14 -1 -12 5 -19 17 -19 19 0 20 -2 35 -137 6 -56 41 -157 74 -217 12 -20 21
-43 21 -51 0 -7 7 -20 15 -29 14 -14 13 -20 -5 -60 -12 -24 -30 -52 -40 -61
-11 -10 -74 -37 -142 -62 l-123 -44 -17 21 c-10 12 -18 30 -18 40 0 9 -9 28
-19 42 -32 40 -98 171 -106 208 -4 19 -10 40 -13 45 -4 6 -8 15 -9 20 -1 6
-10 35 -20 65 -13 41 -17 92 -17 205 0 246 39 421 130 579 l48 85 66 -34 c36
-19 90 -45 120 -59 30 -14 93 -54 138 -88 l84 -62 -28 -23 c-15 -12 -31 -20
-36 -17 -4 3 -8 -3 -9 -13 0 -10 -9 -31 -20 -48 -24 -38 -39 -73 -39 -89 0
-22 44 -13 56 11 6 13 18 31 27 41 10 10 17 26 17 35 0 9 5 19 11 22 5 4 14
18 20 31 5 14 24 31 41 39 18 7 53 31 78 53 40 37 71 51 189 87 l24 7 -5 -303
c-5 -299 3 -256 17 91 12 295 13 431 3 383 -5 -24 -13 -43 -17 -43 -4 0 -6
-17 -4 -39 3 -35 1 -40 -31 -55 -19 -9 -37 -16 -40 -16 -13 0 -5 30 12 39 9 6
13 10 7 11 -15 0 -31 -13 -38 -32 -3 -10 -19 -21 -34 -24 -15 -4 -50 -22 -78
-41 -52 -35 -71 -41 -59 -20 6 9 3 8 -8 -1 -9 -8 -14 -20 -11 -28 3 -8 -29 6
-71 31 -73 43 -308 155 -325 155 -5 0 -14 7 -21 16 -11 13 -4 25 51 80 127
129 253 206 410 249 52 14 105 32 119 39 14 8 50 16 80 17 l55 3 6 -34 c9 -51
10 316 2 461 -8 119 -8 113 -13 -131 l-5 -255 -26 -12 c-14 -7 -54 -13 -90
-14 -35 -1 -73 -8 -84 -15 -11 -8 -31 -14 -45 -14 -14 0 -57 -15 -96 -34 -101
-48 -111 -50 -117 -27 -6 24 8 37 48 46 63 14 95 27 90 36 -4 5 -1 9 4 9 6 0
11 -4 11 -10 0 -5 7 -7 16 -3 15 5 15 7 0 15 -21 12 -10 31 14 23 10 -3 21 -1
24 4 13 21 -107 297 -124 286 -4 -2 -8 144 -9 326 l-2 330 32 30 c30 28 31 32
27 91 -4 53 -9 65 -36 89 -56 50 -133 35 -167 -31 -19 -36 -13 -105 12 -132
16 -18 18 -45 21 -310 2 -202 0 -294 -8 -303 -16 -19 -98 -35 -125 -25 -23 9
-128 157 -203 288 -24 41 -50 81 -58 89 -8 8 -14 19 -14 25 0 6 -16 36 -35 67
-28 47 -33 64 -29 93 5 29 1 41 -25 71 -38 42 -75 53 -131 36 -55 -17 -70 -41
-70 -110 0 -49 4 -61 29 -88 23 -25 37 -31 70 -31 44 0 47 -2 93 -75 18 -27
49 -76 70 -108 21 -32 38 -61 38 -65 0 -4 18 -34 39 -67 79 -121 126 -183 144
-188 39 -11 15 -37 -70 -77 -112 -52 -153 -80 -231 -156 -52 -51 -64 -69 -71
-108 -5 -26 -16 -55 -25 -65 -9 -10 -16 -24 -16 -32 0 -9 -12 -15 -33 -16 -29
-1 -30 0 -10 9 17 8 23 23 28 69 4 32 4 62 1 67 -8 13 -56 22 -56 11 0 -5 -5
-9 -11 -9 -5 0 -7 4 -4 10 4 6 -6 7 -27 4 -32 -6 -32 -6 -12 10 12 8 43 18 69
20 45 5 47 3 60 -27 7 -18 11 -48 8 -67 -3 -27 -2 -31 6 -20 12 17 15 79 5
105 -10 24 -72 46 -111 39 -21 -4 -33 -2 -33 5 0 6 -5 11 -11 11 -6 0 -9 -7
-6 -15 6 -14 -35 -55 -54 -55 -11 0 11 40 30 56 24 19 3 49 -129 182 -122 123
-130 133 -130 170 0 92 -48 142 -135 142 -38 0 -52 -5 -76 -29 -23 -24 -29
-38 -29 -75 0 -80 33 -116 108 -116 28 0 44 -10 90 -58 166 -170 237 -251 257
-297 28 -60 71 -110 108 -124 24 -9 26 -13 17 -36 -10 -27 -2 -32 19 -12 12
10 13 8 6 -8 -4 -11 -8 -25 -8 -32 0 -7 -5 -9 -10 -6 -6 4 -8 0 -5 -9 4 -9 0
-15 -8 -15 -9 0 -12 7 -8 19 9 28 -11 21 -26 -9 -8 -16 -12 -49 -11 -75 2 -29
-1 -48 -8 -48 -6 0 -8 7 -5 15 8 20 -25 32 -37 14 -5 -8 -11 -33 -15 -56 -4
-27 -11 -43 -20 -43 -8 0 -19 -12 -25 -27 -20 -57 -21 -59 -26 -46 -5 14 72
180 123 264 19 31 34 65 34 75 -1 11 -12 -2 -27 -31 -14 -27 -31 -57 -38 -65
-28 -31 -115 -214 -175 -367 -7 -18 -14 -33 -16 -33 -23 0 -287 67 -319 81
-75 33 -186 57 -295 64 -41 3 -93 8 -114 11 l-39 7 6 -44 c6 -48 45 -139 76
-179 l20 -25 30 68 c38 85 56 93 131 60 54 -24 187 -66 265 -84 40 -9 82 -23
120 -40 11 -4 34 -10 50 -11 32 -3 35 -12 21 -73 -4 -16 -9 -63 -13 -103 -3
-39 -11 -79 -17 -88 -10 -13 -44 -15 -241 -14 -142 0 -231 4 -233 10 -4 10
-14 20 -46 47 -12 11 -17 10 -25 -5 -6 -9 -11 -12 -11 -6 0 5 5 15 12 22 9 9
8 15 -8 26 -22 17 -35 8 -37 -27 -2 -21 -8 -26 -41 -30 -53 -7 -75 -33 -83
-96 -5 -44 -3 -57 16 -82 12 -16 20 -33 18 -37 -3 -4 1 -12 8 -19 10 -9 14 -7
18 9 5 16 9 19 19 10 7 -5 43 -13 81 -15 l67 -5 0 28 c0 16 4 31 8 34 5 3 80
8 168 12 111 4 163 10 173 20 12 11 19 10 44 -3 24 -12 34 -13 52 -3 13 7 27
10 33 7 7 -5 20 -109 24 -197 0 -8 5 -21 11 -28 6 -8 7 -16 1 -22 -15 -14
-214 -78 -284 -90 -36 -7 -85 -17 -109 -23 l-43 -10 5 -44 c2 -24 7 -47 11
-50 3 -3 38 4 78 16 40 11 80 21 89 21 8 0 71 16 139 35 68 19 124 34 125 32
10 -12 30 -57 36 -82 4 -16 17 -55 29 -85 12 -30 37 -100 57 -155 47 -133 79
-196 88 -172 4 9 12 17 17 17 6 0 3 -12 -7 -26 -15 -23 -16 -33 -6 -66 7 -21
9 -42 7 -47 -3 -5 3 -19 13 -32 l19 -23 -62 -69 c-33 -38 -118 -127 -188 -198
-120 -121 -128 -128 -160 -123 -41 6 -98 -21 -115 -56 -35 -70 -2 -164 62
-176 84 -15 155 36 155 114 0 30 12 46 108 142 152 152 244 251 264 283 23 35
39 34 101 -7 29 -19 66 -38 82 -41 17 -4 41 -15 55 -24 14 -8 34 -20 45 -26
13 -7 21 -23 23 -45 2 -29 -10 -56 -77 -160 -104 -162 -122 -195 -108 -209 6
-6 17 -11 24 -11 7 0 17 -9 23 -20 14 -27 37 -25 46 3 4 12 26 54 49 92 23 39
57 97 75 130 18 33 46 79 61 101 27 40 30 41 66 34 21 -3 51 -19 65 -33 15
-15 37 -27 48 -27 19 0 21 -4 15 -29 -6 -26 -2 -30 47 -54 70 -34 154 -65 200
-72 21 -3 40 -9 42 -14 5 -7 -9 -200 -18 -261 -5 -26 -20 -147 -21 -165 -1 -5
-6 -20 -13 -32 -7 -12 -12 -51 -12 -87 0 -59 -3 -67 -25 -82 -38 -25 -35 -84
5 -117 40 -34 80 -41 123 -24 72 30 95 82 60 135 -16 23 -18 51 -17 207 1 99
5 205 8 235 4 30 9 81 13 113 3 31 7 57 8 57 15 0 194 -45 207 -52 16 -8 18
-35 21 -286 l2 -277 3 278 c1 176 6 277 12 277 6 0 10 7 10 16 0 8 -3 13 -7
11 -5 -3 -7 117 -5 267 2 218 0 273 -10 274 -102 9 -218 48 -218 72 0 6 -8 10
-18 10 -9 0 -53 18 -98 39 -44 22 -100 45 -125 51 -50 13 -134 64 -143 86 -3
8 -17 19 -31 24 -14 5 -25 17 -25 25 0 9 -4 14 -9 10 -5 -3 -17 5 -25 17 -9
12 -19 18 -23 14 -10 -9 93 -107 149 -143 23 -14 55 -30 72 -35 17 -6 60 -25
96 -43 36 -18 90 -43 120 -55 30 -12 64 -30 75 -40 28 -26 125 -62 149 -56 20
5 46 -9 46 -25 0 -59 -609 202 -669 286 -12 16 -35 48 -51 70 -16 22 -34 53
-40 69 -10 28 -9 28 8 13 20 -18 52 -23 52 -8 0 5 25 19 56 31 104 38 219 98
262 136 43 38 54 64 27 64 -17 0 -20 16 -6 25 6 3 29 -13 53 -34 23 -22 68
-52 98 -66 30 -14 60 -29 66 -33 6 -4 33 -21 60 -39 73 -48 74 -49 74 -106 0
-32 4 -47 9 -39 4 8 12 14 16 15 12 3 15 51 19 282 5 264 18 784 21 816 1 13
4 89 5 169 2 99 5 131 10 100 4 -25 7 243 8 595 1 352 5 735 8 850 9 269 2
335 -37 380 -20 23 -35 31 -49 28 -11 -3 -41 6 -68 20 -41 21 -73 33 -147 53
-108 29 -409 47 -535 31z m393 -465 c-3 -12 -12 -22 -20 -22 -11 0 -10 5 4 24
21 28 24 28 16 -2z m414 -450 c-1 -81 -3 -12 -3 153 0 165 2 231 3 147 2 -84
2 -219 0 -300z m-520 286 c-2 -13 -4 -3 -4 22 0 25 2 35 4 23 2 -13 2 -33 0
-45z m-4209 -588 c52 -32 64 -74 60 -213 -3 -113 -4 -120 -28 -139 -22 -18
-36 -20 -113 -16 -48 2 -92 9 -98 15 -7 7 -9 61 -7 153 l3 142 35 30 c62 53
97 59 148 28z m3971 -96 c9 -40 24 -68 54 -102 23 -26 62 -77 86 -114 24 -37
48 -65 53 -62 5 4 7 12 4 20 -5 12 -2 12 15 3 21 -11 20 -12 -12 -45 -18 -19
-27 -34 -20 -34 8 0 -20 -27 -62 -59 -41 -33 -92 -80 -113 -105 -41 -50 -59
-59 -49 -25 5 15 3 20 -6 17 -8 -3 -18 -18 -23 -34 -5 -16 -20 -51 -34 -78
-65 -127 -126 -347 -136 -491 -4 -54 -9 -101 -12 -104 -2 -2 -94 -5 -204 -5
-125 -1 -186 -4 -163 -9 21 -4 111 -7 200 -5 176 3 177 3 167 -51 -8 -36 12
-169 36 -246 28 -88 70 -189 84 -200 7 -6 17 -21 21 -35 4 -14 11 -27 15 -30
7 -5 50 -85 50 -93 0 -3 -15 -7 -32 -10 -93 -18 -193 -52 -283 -96 -84 -42
-198 -81 -236 -81 -13 0 -81 148 -103 225 -10 33 -24 76 -32 95 -39 96 -76
251 -81 338 l-6 92 39 1 c39 0 95 17 64 18 -12 1 -16 14 -18 48 -2 53 -14 66
-55 57 l-28 -6 2 59 c1 32 6 74 10 93 4 19 10 50 13 68 7 51 16 51 16 1 0 -67
8 -73 72 -62 29 5 67 6 83 1 17 -4 64 -12 105 -18 100 -13 108 -15 116 -23 16
-15 36 -7 31 12 -4 15 4 24 29 36 19 9 33 19 32 23 -1 4 1 14 5 22 3 8 10 38
16 65 7 28 20 73 31 100 10 28 21 61 24 75 3 14 15 36 26 48 25 27 20 49 -13
61 -14 5 -34 21 -45 35 -12 16 -26 24 -36 20 -8 -3 -50 8 -92 25 -42 17 -87
31 -100 31 -29 0 -30 10 -3 33 13 12 18 24 14 37 -4 11 4 34 18 57 22 35 29
39 63 38 22 0 45 -4 52 -8 7 -5 12 -3 12 6 0 8 8 14 18 13 15 -1 17 8 15 67 0
37 2 67 7 67 18 0 139 -88 188 -138 40 -39 52 -57 46 -70 -11 -25 -10 -57 1
-60 6 -2 12 7 15 20 4 16 15 25 35 28 l30 6 -2 74 c-4 106 -6 112 -78 192 -69
76 -89 124 -64 155 20 24 90 73 104 73 6 0 17 -25 24 -56z m-3174 -14 l0 -55
-285 0 -285 0 -3 49 c-2 32 1 52 10 57 7 5 137 8 288 6 l275 -2 0 -55z m2659
-221 c50 -59 20 -84 -34 -28 -35 37 -43 87 -11 70 10 -6 31 -24 45 -42z m-4
-259 c0 -5 -4 -10 -10 -10 -5 0 -10 5 -10 10 0 6 5 10 10 10 6 0 10 -4 10 -10z
m780 -240 c8 -5 10 -10 4 -10 -7 0 -22 9 -35 21 -19 16 -20 18 -4 10 11 -6 27
-15 35 -21z m-960 -10 c0 -5 -2 -10 -4 -10 -3 0 -8 5 -11 10 -3 6 -1 10 4 10
6 0 11 -4 11 -10z m-25 -30 c-3 -4 1 -10 9 -13 9 -4 12 -14 9 -29 -13 -51 -49
-68 -38 -18 4 19 3 30 -4 30 -13 0 -11 19 4 36 11 13 29 8 20 -6z m1085 -21
c0 -16 -26 -10 -45 11 -18 20 -18 20 13 9 18 -6 32 -15 32 -20z m-4024 -365
c17 -10 44 -35 60 -53 24 -29 29 -44 29 -87 0 -44 -5 -57 -29 -83 -46 -48
-119 -75 -185 -67 -73 9 -150 51 -168 93 -28 69 -10 153 40 186 63 41 195 47
253 11z m4371 -806 c-3 -8 -6 -5 -6 6 -1 11 2 17 5 13 3 -3 4 -12 1 -19z
m-772 -51 c1 -20 -2 -37 -8 -37 -5 0 -6 -7 -3 -16 4 -9 -3 -32 -14 -51 -11
-19 -15 -31 -8 -27 8 5 9 1 5 -12 -7 -18 -7 -18 8 0 15 19 15 19 15 -5 -1 -33
-66 -125 -117 -161 -40 -29 -43 -30 -91 -19 -54 14 -119 67 -134 111 -3 10
-14 0 -32 -28 -19 -30 -32 -42 -42 -38 -9 3 -24 6 -35 6 -29 0 -69 44 -69 77
0 46 58 101 123 117 26 6 27 5 15 -13 -9 -15 -10 -23 -1 -32 17 -17 31 -3 39
36 8 43 22 55 71 61 20 3 48 14 60 26 13 12 26 19 29 15 4 -3 16 0 28 8 11 8
36 15 54 15 29 0 32 -3 27 -20 -4 -11 -2 -20 4 -20 6 0 12 6 13 13 0 6 2 17 3
22 2 6 3 13 4 17 0 3 13 3 28 -1 23 -6 27 -13 28 -44z m57 -68 c26 -50 26 -51
5 -45 -11 3 -26 1 -33 -5 -7 -5 -14 -6 -17 -2 -7 11 4 103 12 103 3 0 18 -23
33 -51z m-3956 -220 c8 -14 -10 -11 -32 6 -18 13 -18 14 4 8 12 -3 25 -9 28
-14z m4356 -19 c18 -11 40 -20 49 -20 28 0 40 -24 24 -46 -23 -33 -173 -339
-181 -368 -3 -14 -10 -26 -14 -26 -16 0 -170 73 -170 80 0 4 7 13 15 20 20 17
58 93 75 152 10 32 25 57 48 75 19 15 38 37 42 49 5 12 22 28 37 36 19 9 29
22 31 41 4 32 3 32 44 7z m-4387 -2 c31 -14 33 -32 3 -23 -22 6 -22 6 -4 -9
11 -9 28 -28 38 -43 10 -16 18 -23 18 -16 0 6 -4 15 -10 18 -5 3 -10 11 -10
18 0 6 14 -3 32 -20 25 -26 32 -42 36 -86 3 -34 0 -57 -7 -61 -6 -4 -11 0 -11
9 0 9 -4 13 -10 10 -5 -3 -10 -17 -10 -30 0 -86 -160 -136 -242 -75 -15 11
-28 16 -28 10 0 -17 81 -50 123 -50 52 0 107 24 139 63 17 19 27 26 27 17 0
-20 -16 -40 -61 -74 -32 -23 -49 -29 -100 -30 -80 -1 -145 33 -183 98 -35 60
-35 139 0 186 14 19 25 28 25 20 0 -16 11 -7 14 12 3 21 16 38 29 38 7 0 3 -7
-7 -15 -20 -15 -20 -15 0 -15 11 0 27 9 37 20 11 13 13 20 4 20 -8 0 -7 4 3
10 21 13 124 12 155 -2z m810 -238 l0 -55 -292 -3 -293 -2 0 55 0 54 133 4
c72 1 204 3 292 2 l160 0 0 -55z m3595 -786 c17 -42 12 -89 -11 -110 -33 -30
-54 -8 -55 57 -1 30 3 60 9 67 16 21 47 14 57 -14z"/>
<path d="M3783 6273 c9 -2 23 -2 30 0 6 3 -1 5 -18 5 -16 0 -22 -2 -12 -5z"/>
<path d="M3890 6255 c77 -17 130 -19 130 -5 0 6 -22 10 -49 10 -26 0 -70 2
-97 5 -44 4 -42 3 16 -10z"/>
<path d="M4068 6253 c7 -3 16 -2 19 1 4 3 -2 6 -13 5 -11 0 -14 -3 -6 -6z"/>
<path d="M4150 5530 c-9 -17 -8 -20 10 -20 13 0 20 7 20 20 0 11 -4 20 -10 20
-5 0 -14 -9 -20 -20z"/>
<path d="M4225 5420 c-3 -5 -1 -10 4 -10 6 0 11 5 11 10 0 6 -2 10 -4 10 -3 0
-8 -4 -11 -10z"/>
<path d="M393 5223 c9 -2 25 -2 35 0 9 3 1 5 -18 5 -19 0 -27 -2 -17 -5z"/>
<path d="M6050 8866 c-104 -19 -199 -43 -442 -113 -15 -4 -18 -17 -19 -67 0
-33 -2 -79 -4 -101 -2 -22 -6 -213 -10 -425 -3 -212 -10 -486 -15 -610 -5
-125 -5 -229 0 -234 5 -5 7 -14 4 -20 -3 -7 12 -11 41 -12 25 -1 45 2 45 7 0
5 10 9 23 9 84 0 225 88 317 200 81 96 99 165 110 415 5 110 10 264 10 343 l0
142 33 0 c18 0 41 6 52 14 20 13 20 10 20 -360 0 -206 3 -374 6 -374 17 0 307
301 376 391 44 58 87 112 95 120 7 8 24 29 37 47 18 26 20 36 11 47 -10 12 -9
15 7 15 29 0 75 39 69 57 -9 22 3 36 19 23 9 -8 15 -8 20 0 6 10 -33 30 -59
30 -7 0 -15 3 -19 6 -9 10 19 34 40 34 14 0 15 -2 4 -9 -10 -6 -5 -11 18 -16
21 -4 37 -2 48 7 15 11 16 11 10 -4 -5 -15 -4 -16 13 -6 10 7 16 16 14 20 -3
4 0 8 7 8 8 0 10 -11 6 -34 -5 -34 -4 -35 58 -66 56 -28 63 -35 62 -58 -2 -24
-8 -27 -95 -47 -50 -12 -92 -20 -92 -17 0 2 19 21 42 42 35 33 40 41 29 54
-22 27 -51 19 -66 -16 -7 -18 -11 -36 -9 -40 3 -4 -1 -6 -8 -3 -8 3 -45 -38
-93 -101 -117 -155 -158 -204 -285 -345 -63 -70 -133 -153 -155 -184 -22 -31
-60 -78 -85 -103 -25 -26 -72 -86 -103 -133 -31 -47 -63 -92 -72 -99 -8 -7
-15 -22 -15 -34 1 -18 4 -17 30 14 17 19 55 71 85 115 73 108 244 285 275 285
16 0 199 -156 349 -298 18 -18 36 -32 40 -32 6 0 72 51 138 108 18 15 57 47
87 72 30 25 59 54 66 65 6 11 32 36 57 55 69 52 153 142 159 170 3 14 10 36
16 50 17 39 1 79 -25 63 -5 -3 -3 -9 3 -13 8 -5 10 -15 5 -26 -7 -18 -8 -18
-14 1 -11 35 -32 61 -37 48 -6 -15 -50 -17 -58 -4 -7 10 17 21 45 21 11 0 19
7 19 16 0 11 6 15 20 11 12 -3 20 0 20 8 0 13 49 27 64 18 8 -5 5 -37 -9 -113
l-7 -35 21 33 c27 42 67 44 82 5 l11 -28 24 28 c23 27 28 43 25 79 -1 10 12
26 30 37 34 21 52 20 31 -1 -7 -7 -12 -21 -12 -32 0 -16 -2 -18 -9 -7 -10 16
-24 -1 -16 -21 3 -7 -10 -29 -30 -48 -19 -19 -35 -40 -35 -47 0 -21 -79 -102
-135 -138 -27 -18 -86 -69 -130 -114 -44 -44 -85 -81 -90 -81 -6 0 -18 -8 -27
-17 -34 -38 -172 -159 -194 -171 -13 -7 -25 -23 -26 -35 0 -12 -2 -28 -2 -34
-1 -7 -15 -23 -32 -35 -67 -48 -111 -84 -160 -129 -65 -60 -113 -81 -186 -80
-34 0 -58 -4 -58 -10 0 -6 -6 -7 -12 -3 -7 4 -6 -1 3 -12 10 -10 19 -28 20
-38 2 -11 9 -21 15 -23 7 -2 10 6 7 22 -5 24 -3 25 39 25 29 0 62 9 91 25 49
25 169 114 200 146 10 11 31 19 47 19 17 0 30 4 30 10 0 5 -7 7 -15 4 -8 -4
-15 -2 -15 3 0 12 44 37 47 27 4 -10 15 -30 59 -106 17 -29 34 -72 38 -96 3
-24 11 -51 16 -60 6 -9 24 -57 41 -107 53 -161 63 -185 71 -185 4 0 8 9 8 21
0 11 -4 17 -10 14 -5 -3 -10 -2 -10 3 0 7 67 33 82 33 2 0 26 6 53 15 28 8 70
19 95 24 25 5 70 16 100 24 189 51 340 86 373 86 30 0 45 -7 67 -30 32 -34 29
-40 -20 -40 -20 0 -40 -4 -46 -9 -5 -4 -47 -18 -94 -31 -131 -35 -127 -34
-134 -12 -4 11 -14 26 -22 33 -14 11 -15 8 -9 -24 6 -31 4 -37 -9 -37 -11 0
-15 5 -10 13 4 6 -1 5 -12 -5 -17 -15 -76 -35 -129 -44 -11 -2 -77 -19 -147
-37 -70 -19 -130 -32 -133 -29 -3 3 -5 -5 -5 -17 0 -28 -40 -43 -240 -91 -47
-12 -120 -32 -163 -46 -88 -27 -116 -30 -121 -11 -2 6 -14 50 -26 97 -21 78
-102 251 -153 325 -44 64 -152 177 -221 232 -115 91 -176 133 -192 133 -8 0
-17 7 -20 15 -4 10 -13 13 -25 10 -29 -10 -23 9 24 65 23 29 50 64 59 78 9 14
21 28 26 31 15 9 30 75 25 105 l-6 27 -13 -23 c-7 -13 -17 -32 -23 -43 -5 -11
-42 -54 -83 -96 -81 -84 -155 -126 -237 -136 -54 -6 -81 -32 -32 -31 69 2 328
-116 437 -198 52 -40 184 -171 184 -183 0 -5 19 -32 43 -59 23 -28 56 -75 72
-106 26 -48 28 -58 15 -66 -13 -8 -13 -10 2 -10 22 0 26 -7 48 -88 29 -104 41
-182 31 -200 -6 -11 -11 -1 -16 36 -4 29 -11 54 -16 58 -10 6 -7 -81 3 -91 3
-3 3 -25 0 -47 -4 -31 -1 -43 12 -50 9 -5 14 -14 11 -19 -4 -5 -9 -28 -11 -52
-3 -23 -7 -50 -8 -60 -1 -10 -9 -23 -17 -28 -10 -6 -10 -9 -1 -9 6 0 12 -7 12
-15 0 -8 -7 -15 -15 -15 -20 0 -19 -10 3 -26 16 -13 16 -13 -1 -14 -10 0 -15
-4 -12 -10 3 -5 1 -10 -5 -10 -6 0 -10 -6 -9 -12 3 -26 -1 -34 -20 -34 -18 0
-18 2 -5 27 20 39 46 200 46 289 1 72 -33 283 -52 325 -5 11 -23 54 -41 95
-40 97 -119 202 -234 313 -50 48 -149 110 -160 99 -3 -4 -9 -2 -13 4 -25 35
-353 164 -420 164 -17 0 -22 -6 -22 -27 -1 -203 -38 -880 -59 -1049 -4 -35 -4
-64 1 -64 4 0 8 -8 8 -17 0 -14 -2 -15 -9 -4 -6 9 -11 -16 -16 -70 -6 -79 -21
-912 -20 -1159 0 -63 1 -627 3 -1252 l2 -1136 33 -11 c114 -38 148 -43 322
-47 153 -3 194 0 275 17 110 24 325 118 404 177 28 21 67 48 86 59 53 33 190
179 247 263 71 107 107 172 148 274 56 140 87 281 125 567 9 75 22 145 28 155
10 17 26 19 189 20 191 1 215 4 309 36 51 17 70 31 120 87 62 68 84 113 105
216 7 33 16 65 20 71 5 5 13 44 20 85 6 40 15 79 19 84 5 6 8 12 8 15 -2 14
35 208 42 225 5 11 11 43 15 70 9 75 44 312 56 377 5 32 12 72 14 90 2 18 7
56 10 83 4 28 13 88 20 135 8 47 26 189 40 315 14 127 28 249 31 273 l6 42
302 0 c234 -1 305 -4 319 -14 14 -11 17 -29 17 -97 0 -75 3 -89 27 -124 14
-22 30 -42 34 -45 4 -3 38 -50 75 -105 101 -150 230 -320 256 -337 14 -9 62
-18 118 -22 52 -4 105 -10 118 -13 13 -3 22 -1 22 6 0 7 -29 64 -64 129 -63
114 -101 176 -202 332 -27 41 -52 83 -56 93 -4 9 -33 56 -64 102 -31 47 -55
88 -52 90 2 2 203 5 447 5 l443 2 28 -27 c63 -61 208 -105 279 -85 l41 11 0
60 0 61 -34 -21 c-46 -29 -102 -27 -148 4 -20 14 -41 25 -47 25 -17 0 -33 67
-25 107 9 53 50 130 75 143 11 7 45 14 74 17 45 5 56 2 74 -16 11 -11 23 -21
26 -21 3 0 5 25 5 55 0 48 -3 57 -27 72 -36 24 -102 22 -178 -5 -55 -20 -94
-51 -120 -96 -9 -16 -44 -17 -469 -16 -253 0 -462 2 -464 5 -3 2 11 26 30 52
18 26 46 72 62 102 15 30 51 91 79 135 27 45 84 137 125 206 41 69 84 139 97
155 12 17 48 75 80 130 32 55 65 112 74 127 l16 28 348 0 347 0 0 215 0 215
-388 0 -388 0 -18 -31 c-10 -17 -30 -45 -45 -62 -23 -27 -47 -67 -105 -172 -6
-11 -25 -40 -41 -65 -67 -105 -95 -150 -144 -235 -29 -49 -73 -119 -97 -155
-25 -36 -51 -78 -59 -95 -8 -16 -50 -86 -95 -155 l-80 -125 0 -137 0 -138
-320 0 -320 0 0 33 c-1 55 -10 188 -21 297 -6 58 -11 112 -11 120 0 8 -4 35
-9 60 -5 25 -11 63 -13 85 -15 140 -79 429 -119 536 -96 253 -227 455 -438
681 -117 125 -315 299 -378 334 -21 11 -65 39 -98 61 -89 59 -303 161 -386
185 -227 63 -400 73 -617 34z m138 -212 c22 -19 45 -52 52 -74 12 -35 11 -42
-6 -66 -10 -15 -24 -36 -31 -48 -14 -24 -37 -34 -80 -35 -47 -1 -49 16 -3 24
41 7 94 41 85 55 -3 4 2 10 10 14 21 8 19 45 -6 86 -29 48 -37 52 -89 44 -32
-4 -53 -14 -72 -35 -24 -26 -26 -34 -21 -82 3 -28 11 -58 17 -66 9 -12 8 -13
-4 -6 -31 17 -50 39 -50 57 0 10 4 18 9 18 6 0 9 8 9 18 -3 31 12 72 26 72 8
0 16 7 20 15 3 8 17 15 31 15 14 0 30 9 37 19 14 22 14 22 66 -25z m-83 26
c-28 -12 -37 -12 -30 0 3 6 16 10 28 9 21 0 21 -1 2 -9z m100 0 c3 -6 -1 -7
-9 -4 -18 7 -21 14 -7 14 6 0 13 -4 16 -10z m75 -113 c0 -23 -4 -47 -8 -54 -4
-6 -7 13 -7 42 0 36 -5 59 -17 72 -10 11 -18 24 -18 29 0 5 12 -4 25 -19 18
-20 25 -40 25 -70z m-279 74 c-7 -5 -19 -33 -26 -62 -9 -37 -14 -45 -14 -26
-1 36 24 97 41 97 10 0 10 -2 -1 -9z m143 -20 c3 -4 -6 -6 -19 -3 -19 3 -27
-1 -33 -19 -6 -15 -11 -19 -16 -10 -4 6 -2 18 4 26 14 16 56 20 64 6z m-35
-98 c-9 -11 -8 -17 7 -28 18 -14 18 -14 -2 -15 -11 0 -30 13 -42 30 -27 36
-28 43 -2 35 12 -4 20 -2 20 6 0 8 4 8 15 -1 12 -10 13 -16 4 -27z m87 5 c-3
-30 -37 -60 -51 -46 -10 10 7 37 27 44 11 3 17 12 14 20 -3 8 -1 14 4 14 6 0
8 -14 6 -32z m561 -114 c-3 -4 -21 -10 -39 -14 l-33 -8 40 -2 c22 -1 49 -5 60
-10 37 -16 -32 -11 -109 7 -68 17 -69 18 -36 24 48 9 125 10 117 3z m83 -251
c0 -5 -12 -17 -27 -27 -25 -18 -24 -9 2 21 11 14 25 17 25 6z m620 -183 c0 -5
-2 -10 -4 -10 -3 0 -8 5 -11 10 -3 6 -1 10 4 10 6 0 11 -4 11 -10z m2720 -395
c0 -75 0 -75 -27 -76 -47 -2 -557 2 -558 4 0 1 1 35 3 75 l4 72 289 0 289 0 0
-75z m-4583 -397 c-2 -7 3 -22 12 -32 15 -18 15 -19 -2 -13 -10 4 -23 7 -28 7
-5 0 -3 11 3 25 11 25 23 35 15 13z m467 -44 c3 -8 2 -12 -4 -9 -6 3 -10 10
-10 16 0 14 7 11 14 -7z m-419 -104 c7 -12 -12 -12 -40 0 -18 8 -17 9 7 9 15
1 30 -3 33 -9z m55 -30 c8 -5 12 -11 9 -14 -3 -3 -14 1 -25 9 -21 16 -8 20 16
5z m128 -57 c85 -52 132 -85 132 -92 0 -4 20 -22 44 -39 47 -34 115 -130 160
-226 32 -67 60 -153 58 -178 0 -10 2 -18 6 -18 13 0 7 -61 -7 -69 -9 -6 -12
-19 -8 -40 4 -17 3 -31 -2 -31 -5 0 -12 -22 -16 -50 -6 -46 -9 -50 -34 -50
-15 0 -36 7 -47 16 -18 14 -18 15 6 8 48 -13 55 -11 55 21 0 17 4 33 9 37 6 4
5 12 -2 21 -10 12 -9 16 5 22 17 6 17 7 0 20 -13 9 -15 15 -7 20 7 4 9 17 6
29 -4 11 -9 43 -11 71 -3 27 -10 65 -16 83 -8 24 -8 36 -1 41 13 8 -32 101
-84 172 -45 63 -91 104 -115 104 -25 1 -48 23 -42 43 3 13 -12 26 -59 51 -35
18 -67 37 -72 42 -17 16 13 10 42 -8z m-218 -13 c0 -5 -5 -10 -11 -10 -5 0 -7
5 -4 10 3 6 8 10 11 10 2 0 4 -4 4 -10z m602 -92 c12 -17 17 -28 10 -25 -6 4
-21 22 -34 39 -12 17 -17 28 -10 25 6 -4 21 -22 34 -39z m-467 -26 c-6 -7 -35
18 -35 31 0 5 9 2 20 -8 11 -10 18 -20 15 -23z m-100 -47 c61 -28 130 -76 153
-107 7 -9 19 -24 27 -32 17 -17 20 -36 5 -36 -5 0 -10 6 -10 13 0 32 -131 132
-227 173 -24 10 -43 22 -43 26 0 4 8 4 18 -1 9 -4 44 -21 77 -36z m231 -2 c-5
-5 -66 35 -66 42 0 3 16 -5 35 -17 20 -11 34 -23 31 -25z m-42 -20 c40 -26 46
-33 28 -33 -12 0 -25 7 -28 15 -4 8 -14 15 -23 15 -10 0 -28 11 -42 26 -20 21
-20 24 -4 18 10 -4 41 -22 69 -41z m444 2 c-3 -3 -13 7 -23 22 l-17 28 23 -22
c12 -12 20 -25 17 -28z m-294 -84 c4 -8 -15 6 -41 30 -27 24 -50 48 -52 54 -6
15 86 -67 93 -84z m-44 -6 c13 -14 21 -25 18 -25 -2 0 -15 11 -28 25 -13 14
-21 25 -18 25 2 0 15 -11 28 -25z m408 -50 c-3 -3 -9 2 -12 12 -6 14 -5 15 5
6 7 -7 10 -15 7 -18z m-283 -51 c15 -36 49 -85 56 -81 3 1 1 -2 -2 -6 -4 -5
-2 -22 5 -38 8 -23 8 -32 -2 -38 -10 -6 -8 -10 8 -14 15 -4 19 -10 14 -19 -5
-7 -9 -22 -9 -33 0 -17 -9 -21 -60 -26 -33 -3 -62 -1 -63 3 -2 4 -8 6 -13 3
-4 -3 -8 11 -7 32 1 20 -4 39 -10 41 -8 2 -9 9 -2 22 5 10 7 26 4 34 -4 11 -2
15 8 11 8 -3 21 2 29 11 12 16 12 17 -3 11 -14 -5 -18 -1 -17 16 0 12 3 17 5
11 6 -13 44 -7 44 7 0 9 -22 13 -48 10 -9 -2 -11 6 -6 24 4 15 1 32 -7 42 -12
14 -11 15 10 8 20 -6 23 -4 18 9 -13 34 33 -4 48 -40z m-204 -7 c-8 -8 -11 -3
-11 19 1 25 2 27 11 11 8 -14 8 -22 0 -30z m1269 -23 c0 -14 4 -33 9 -43 5 -9
13 -45 17 -79 l7 -62 -39 -1 -39 -2 35 -6 c31 -5 35 -10 35 -36 0 -28 -3 -30
-46 -36 -26 -4 -118 -9 -205 -12 -88 -3 -160 -6 -161 -8 -2 -1 -8 -2 -15 -3
-6 0 -13 -7 -16 -15 -3 -8 -1 -11 4 -8 5 3 69 8 141 11 73 3 170 8 215 10 l83
5 -55 -12 c-30 -7 -60 -15 -66 -19 -6 -4 -38 -5 -72 -2 -35 3 -67 2 -74 -2 -6
-4 -72 -7 -147 -8 -98 -1 -124 1 -93 7 23 4 42 12 42 17 0 12 -25 19 -48 13
-16 -4 -21 2 -26 32 -4 20 -6 39 -3 41 2 2 107 8 233 13 l229 9 -230 -1 -230
-2 -3 50 -3 50 83 18 c46 10 97 22 113 27 17 5 82 21 145 36 63 15 122 31 130
35 30 17 50 10 50 -17z m-1231 -23 c-1 -14 -2 -14 -6 1 -2 10 -10 15 -19 11
-10 -4 -12 0 -8 11 5 13 9 14 20 5 8 -6 13 -19 13 -28z m4101 -71 c0 -5 -5
-10 -11 -10 -5 0 -7 5 -4 10 3 6 8 10 11 10 2 0 4 -4 4 -10z m-3566 -15 c-25
-19 -40 -19 -24 0 7 8 20 15 28 15 13 0 12 -3 -4 -15z m-524 -5 c0 -5 -4 -10
-10 -10 -5 0 -10 5 -10 10 0 6 5 10 10 10 6 0 10 -4 10 -10z m2000 -20 c6 -10
10 -37 10 -60 l0 -41 -52 3 c-49 3 -53 5 -56 29 -3 22 -7 25 -33 21 -20 -3
-31 -11 -35 -27 -5 -21 -11 -22 -167 -28 -112 -4 -185 -12 -236 -26 -41 -11
-79 -18 -83 -15 -4 3 -8 27 -8 53 l0 48 88 12 c49 6 138 11 198 11 63 0 114 4
120 10 6 6 30 12 52 13 23 1 42 4 42 7 0 4 34 7 75 7 63 1 77 -2 85 -17z
m-2343 -22 c-3 -8 -6 -5 -6 6 -1 11 2 17 5 13 3 -3 4 -12 1 -19z m383 3 c0 -5
-7 -11 -15 -15 -15 -5 -20 5 -8 17 9 10 23 9 23 -2z m20 -41 c0 -5 -5 -10 -11
-10 -5 0 -7 5 -4 10 3 6 8 10 11 10 2 0 4 -4 4 -10z m-403 -32 c-3 -8 -6 -5
-6 6 -1 11 2 17 5 13 3 -3 4 -12 1 -19z m358 12 c3 -6 -1 -7 -9 -4 -10 4 -16
1 -16 -7 0 -7 -3 -10 -6 -6 -7 7 4 27 16 27 5 0 12 -4 15 -10z m665 -50 c0 -5
-5 -10 -11 -10 -5 0 -7 5 -4 10 3 6 8 10 11 10 2 0 4 -4 4 -10z m-696 -35 c-4
-8 -8 -15 -10 -15 -2 0 -4 7 -4 15 0 8 4 15 10 15 5 0 7 -7 4 -15z m66 5 c0
-5 -5 -10 -11 -10 -5 0 -7 5 -4 10 3 6 8 10 11 10 2 0 4 -4 4 -10z m-393 -57
c-3 -10 -5 -4 -5 12 0 17 2 24 5 18 2 -7 2 -21 0 -30z m344 -13 c-3 -3 -15
-22 -25 -42 -22 -43 -31 -47 -39 -17 -4 16 -3 18 9 8 11 -9 14 -8 14 5 0 9 4
16 9 16 5 0 12 19 16 43 7 37 8 39 14 17 4 -14 5 -27 2 -30z m65 20 c8 0 14
-4 14 -10 0 -13 -3 -13 -33 3 -21 11 -24 16 -14 26 9 10 13 9 15 -3 2 -9 10
-16 18 -16z m-99 -2 c-3 -8 -6 -5 -6 6 -1 11 2 17 5 13 3 -3 4 -12 1 -19z
m1273 12 c0 -5 -17 -9 -37 -9 l-38 2 35 7 c19 4 36 8 38 9 1 0 2 -3 2 -9z
m608 -22 c-4 -27 -32 -35 -54 -17 -14 12 -14 14 2 26 29 21 56 17 52 -9z
m-1738 2 c0 -5 -4 -10 -10 -10 -5 0 -10 5 -10 10 0 6 5 10 10 10 6 0 10 -4 10
-10z m395 0 c18 -8 17 -9 -7 -9 -15 -1 -30 4 -33 9 -7 12 12 12 40 0z m410 0
c-17 -7 -165 -23 -200 -22 -5 0 -11 6 -14 13 -2 8 5 10 22 7 14 -3 43 -2 64 2
55 11 153 11 128 0z m1064 -6 c24 -8 -1 -22 -44 -26 -35 -3 -40 0 -43 20 -3
22 -1 23 35 17 21 -4 44 -9 52 -11z m-2048 -17 c-10 -9 -11 -8 -5 6 3 10 9 15
12 12 3 -3 0 -11 -7 -18z m-314 -19 c-3 -8 -6 -5 -6 6 -1 11 2 17 5 13 3 -3 4
-12 1 -19z m503 -3 c0 -12 -5 -13 -17 -7 -10 5 -25 12 -33 15 -8 3 0 6 18 6
22 1 32 -4 32 -14z m50 -5 c0 -5 -4 -10 -9 -10 -6 0 -13 5 -16 10 -3 6 1 10 9
10 9 0 16 -4 16 -10z m-60 -15 c41 -1 45 -4 45 -26 0 -18 -6 -25 -24 -27 -18
-3 -22 0 -18 11 4 11 0 15 -14 14 -10 -1 -19 -6 -19 -12 -1 -5 -9 0 -19 13
-11 12 -24 22 -30 22 -6 0 -11 5 -11 11 0 6 8 7 23 3 12 -4 42 -8 67 -9z m165
-31 c19 -14 19 -14 -5 -11 -13 2 -26 9 -28 15 -5 16 9 14 33 -4z m-249 -20
c-9 -9 -19 -14 -22 -11 -3 2 3 12 12 21 9 9 19 15 21 12 3 -3 -2 -13 -11 -22z
m-409 -4 c1 -11 -2 -20 -8 -20 -5 0 -9 9 -9 20 0 11 4 20 8 20 4 0 8 -9 9 -20z
m282 -7 c10 -19 9 -23 -3 -23 -16 0 -29 27 -20 42 7 11 7 10 23 -19z m514 -22
c15 -6 27 -12 27 -13 0 -2 -18 -3 -39 -3 -22 0 -37 3 -34 8 2 4 -6 6 -19 4
-12 -2 -17 -2 -10 0 10 4 10 8 2 18 -10 12 -7 13 17 6 15 -5 40 -14 56 -20z
m263 -63 c-2 -46 -6 -105 -10 -133 l-8 -50 73 -50 c40 -27 109 -75 153 -105
173 -119 190 -132 170 -126 -35 10 -154 -68 -154 -101 0 -7 -6 -10 -14 -7 -8
3 -17 1 -21 -5 -3 -6 -1 -11 6 -11 13 0 -90 -102 -186 -184 -33 -28 -79 -71
-102 -95 l-41 -44 36 -20 c33 -18 111 -79 167 -132 12 -11 36 -44 53 -73 31
-50 32 -58 31 -140 -4 -153 17 -199 128 -287 42 -32 71 -61 65 -63 -14 -4 -65
31 -132 91 -43 39 -57 60 -76 115 -14 40 -23 91 -24 129 0 56 -3 65 -39 110
-53 66 -158 165 -203 192 -36 22 -49 41 -28 41 6 0 10 5 10 12 0 6 -10 2 -22
-9 -51 -47 -129 -68 -155 -42 -13 13 -36 3 -28 -12 4 -5 0 -9 -8 -9 -8 0 -14
7 -13 16 0 9 -6 19 -14 22 -13 5 -13 3 -1 -11 20 -25 7 -21 -15 5 -10 12 -13
18 -6 14 16 -10 15 0 -4 29 -9 14 -20 23 -24 20 -4 -3 -10 8 -12 25 -2 16 -1
27 2 25 4 -2 19 19 34 48 16 29 36 61 45 72 10 11 24 31 33 45 8 14 30 30 47
37 31 11 33 11 119 -73 86 -83 102 -95 102 -73 0 11 -169 180 -282 284 -49 44
-60 62 -32 51 8 -3 12 -2 9 4 -3 5 12 29 33 52 22 24 37 48 35 54 -2 7 4 11
13 10 10 0 23 8 28 19 6 12 17 27 24 35 43 50 63 77 68 93 3 9 10 17 15 17 5
0 9 7 9 15 0 8 5 15 11 15 5 0 8 4 4 9 -3 5 -1 12 5 16 5 3 10 0 10 -8 0 -49
81 44 94 110 7 30 -6 69 -29 85 -8 6 25 25 47 27 3 1 5 -36 4 -81z m-672 57
c3 -8 2 -14 -2 -14 -4 1 -13 1 -20 0 -18 -1 -5 -21 14 -21 16 0 44 -23 44 -35
0 -4 -9 -5 -21 -2 -16 4 -18 3 -8 -9 18 -22 -7 -18 -49 8 -28 17 -32 23 -20
32 7 6 12 20 10 30 -3 14 0 17 12 13 9 -4 16 -2 16 3 0 15 17 12 24 -5z m60
-6 c-3 -6 2 -20 13 -31 18 -21 18 -21 -4 -7 -25 15 -38 39 -22 39 6 0 7 5 3
12 -4 7 -3 8 5 4 6 -4 9 -12 5 -17z m156 -4 c0 -9 -38 -75 -56 -98 -13 -15
-21 -34 -18 -42 8 -19 0 -19 -19 0 -20 19 -1 66 23 57 12 -5 13 -3 3 9 -13 16
5 49 26 49 8 0 10 8 6 19 -5 16 -2 18 15 14 11 -3 20 -6 20 -8z m-419 -28
c-16 -15 -25 -18 -28 -9 -9 24 -21 11 -18 -19 3 -25 1 -30 -11 -25 -19 7 -57
-12 -49 -25 4 -5 1 -9 -4 -9 -6 0 -11 9 -11 21 0 11 -4 17 -10 14 -6 -4 -10 5
-10 19 0 14 3 27 8 27 4 1 16 3 27 4 12 1 30 7 41 13 12 6 30 9 41 6 12 -3 24
-1 28 6 4 6 10 9 13 5 3 -3 -5 -16 -17 -28z m84 -4 c4 -17 2 -23 -9 -23 -10 0
-14 10 -14 30 1 33 11 29 23 -7z m234 8 c8 -5 9 -11 3 -15 -5 -3 -15 1 -22 9
-14 16 -3 20 19 6z m131 -17 c0 -2 -7 -4 -15 -4 -8 0 -15 4 -15 10 0 5 7 7 15
4 8 -4 15 -8 15 -10z m205 6 c3 -6 -1 -7 -9 -4 -18 7 -21 14 -7 14 6 0 13 -4
16 -10z m-835 -14 c0 -8 -4 -18 -10 -21 -5 -3 -10 3 -10 14 0 12 5 21 10 21 6
0 10 -6 10 -14z m1905 -46 c104 -21 215 -45 246 -53 31 -9 83 -18 115 -22 l59
-6 -24 19 c-16 13 -20 21 -12 26 7 4 18 2 26 -4 12 -10 16 -9 21 4 3 9 12 16
20 16 11 0 13 -10 9 -37 -2 -21 -7 -59 -10 -86 -6 -42 -9 -47 -28 -42 -81 18
-258 62 -407 101 -96 25 -195 51 -220 56 -25 6 -46 12 -48 13 -2 2 0 19 3 38
7 34 9 35 33 26 14 -6 112 -27 217 -49z m-1695 28 c0 -18 -2 -20 -9 -8 -6 8
-7 18 -5 22 9 14 14 9 14 -14z m2024 6 c11 -27 7 -36 -14 -29 -13 4 -22 1 -26
-9 -9 -24 -24 -9 -24 25 0 25 4 29 29 29 17 0 31 -6 35 -16z m-2261 -581 c7
-621 6 -721 -7 -741 -4 -6 -4 -17 -1 -23 11 -18 6 -1042 -5 -1053 -7 -7 -9
393 -8 1197 2 664 6 1207 9 1207 4 0 9 -264 12 -587z m497 575 c0 -11 -28 -10
-35 1 -3 6 4 9 15 8 11 -1 20 -5 20 -9z m211 -11 c-10 -9 -11 -8 -5 6 3 10 9
15 12 12 3 -3 0 -11 -7 -18z m-371 -7 c0 -5 -2 -10 -4 -10 -3 0 -8 5 -11 10
-3 6 -1 10 4 10 6 0 11 -4 11 -10z m620 -1 c0 -6 -7 -9 -15 -5 -8 3 -15 1 -15
-3 0 -5 5 -11 12 -13 7 -3 3 -15 -12 -36 -24 -33 -54 -44 -44 -17 4 8 11 15
17 15 6 0 8 3 4 6 -10 10 22 64 38 64 8 0 15 -5 15 -11z m-920 -24 c0 -8 -5
-17 -11 -21 -6 -3 -8 -17 -4 -31 4 -16 2 -22 -5 -18 -5 3 -10 26 -10 50 0 35
3 43 15 39 8 -4 15 -12 15 -19z m266 -10 c-3 -10 -12 -15 -20 -12 -7 3 -19 0
-25 -6 -6 -6 -14 -7 -18 -3 -4 4 6 18 22 31 31 24 53 19 41 -10z m204 18 c8
-8 -32 -33 -42 -27 -5 3 -7 12 -4 20 3 9 -1 11 -12 8 -14 -5 -15 -4 -2 5 13 9
47 6 60 -6z m-430 -12 c0 -11 5 -23 10 -26 6 -3 10 -15 10 -25 0 -11 5 -30 12
-44 l11 -26 18 21 c10 12 23 18 29 14 13 -8 -35 -48 -52 -43 -18 6 -48 -29
-49 -59 l-2 -28 -4 29 c-3 20 2 35 18 52 12 13 19 27 16 31 -4 3 -13 -1 -20
-10 -10 -14 -12 -4 -12 58 0 41 3 75 8 75 4 0 7 -9 7 -19z m310 4 c0 -8 -7
-15 -15 -15 -9 0 -12 6 -9 15 4 8 10 15 15 15 5 0 9 -7 9 -15z m-220 -26 c0
-5 -4 -9 -10 -9 -5 0 -10 7 -10 16 0 8 5 12 10 9 6 -3 10 -10 10 -16z m630
-13 c19 -24 6 -19 -26 10 -19 17 -22 22 -8 16 11 -6 26 -18 34 -26z m-662 -5
c3 -8 -1 -12 -9 -9 -7 2 -15 10 -17 17 -3 8 1 12 9 9 7 -2 15 -10 17 -17z
m210 0 c3 -8 -1 -12 -9 -9 -7 2 -15 10 -17 17 -3 8 1 12 9 9 7 -2 15 -10 17
-17z m112 -61 c0 -16 -15 -12 -40 10 -13 11 -27 20 -32 20 -10 0 -11 34 -1 43
8 8 73 -58 73 -73z m270 50 c0 -11 -7 -20 -15 -20 -27 0 -18 30 13 39 1 1 2
-8 2 -19z m-500 -6 c0 -8 -4 -12 -10 -9 -5 3 -10 10 -10 16 0 5 5 9 10 9 6 0
10 -7 10 -16z m88 -10 c2 -11 -4 -26 -12 -33 -12 -10 -14 -9 -9 8 3 12 -1 28
-8 37 -12 14 -11 16 6 13 11 -3 21 -14 23 -25z m216 2 c-8 -21 -42 -26 -56 -8
-11 13 -10 15 3 10 9 -3 22 -2 30 3 20 13 29 11 23 -5z m86 -6 c0 -5 -5 -10
-11 -10 -5 0 -7 5 -4 10 3 6 8 10 11 10 2 0 4 -4 4 -10z m273 -7 c7 -4 -7 -23
-78 -105 -8 -10 -15 -20 -15 -23 0 -3 -9 -14 -20 -25 -12 -12 -18 -25 -15 -30
3 -5 -10 -12 -29 -15 -25 -5 -36 -13 -40 -31 -4 -16 -31 -40 -76 -69 -39 -25
-73 -45 -76 -45 -3 0 -18 -8 -32 -18 -15 -10 -53 -29 -85 -41 -44 -18 -60 -21
-71 -12 -10 9 -15 8 -19 -2 -6 -16 -128 -43 -152 -34 -8 4 -17 2 -19 -2 -11
-18 -54 -9 -60 12 -5 21 4 40 10 22 3 -7 33 -7 92 1 48 7 89 13 92 14 3 1 9 2
14 1 5 -1 2 8 -6 21 -8 13 -26 25 -39 27 -23 3 -23 3 6 16 29 12 30 11 47 -24
14 -30 17 -32 17 -13 1 19 3 21 20 10 17 -10 30 -8 79 16 33 16 65 26 70 22 6
-4 16 3 22 14 6 11 17 20 24 20 8 0 16 7 20 15 3 8 18 21 33 28 15 6 55 38 88
69 32 32 63 58 68 58 5 0 7 7 3 15 -3 8 0 15 7 15 19 1 69 73 64 92 -4 15 -1
17 21 12 15 -4 31 -9 35 -11z m-138 -3 c3 -5 1 -10 -4 -10 -6 0 -11 5 -11 10
0 6 2 10 4 10 3 0 8 -4 11 -10z m-83 -33 c-12 -13 -22 -28 -22 -33 0 -6 -7
-11 -15 -11 -13 0 -12 4 4 21 10 12 16 27 14 34 -3 7 4 12 18 12 l22 0 -21
-23z m-288 -12 c23 -36 20 -48 -9 -29 -14 9 -25 25 -25 35 0 26 15 24 34 -6z
m-111 2 c10 9 20 -25 13 -43 -5 -14 -9 -12 -26 9 -23 29 -28 56 -7 38 8 -6 17
-8 20 -4z m207 -3 c0 -10 -6 -14 -15 -10 -14 5 -20 -6 -16 -28 1 -5 -5 -4 -13
4 -21 17 -20 23 7 36 32 16 37 16 37 -2z m-304 -54 c-1 -41 -3 -47 -13 -35 -6
9 -19 15 -29 13 -9 -2 -19 3 -21 10 -3 6 0 12 6 12 6 0 11 5 11 10 0 15 22 39
36 40 6 0 10 -20 10 -50z m154 7 c0 -8 -6 -14 -14 -14 -8 0 -12 6 -9 14 3 7 9
13 14 13 5 0 9 -6 9 -13z m-106 -44 c6 -18 4 -20 -14 -16 -12 3 -20 14 -20 27
0 46 19 40 34 -11z m380 6 c-8 -13 -24 -1 -24 18 0 13 3 13 15 3 8 -7 12 -16
9 -21z m-64 1 c0 -5 -2 -10 -4 -10 -3 0 -8 5 -11 10 -3 6 -1 10 4 10 6 0 11
-4 11 -10z m117 -12 c-3 -8 -6 -5 -6 6 -1 11 2 17 5 13 3 -3 4 -12 1 -19z
m-227 -109 c0 -6 -4 -7 -10 -4 -5 3 -10 11 -10 16 0 6 5 7 10 4 6 -3 10 -11
10 -16z m-140 -27 c0 -15 -2 -15 -10 -2 -13 20 -13 33 0 25 6 -3 10 -14 10
-23z m390 -26 c0 -3 -4 -8 -10 -11 -5 -3 -10 -1 -10 4 0 6 5 11 10 11 6 0 10
-2 10 -4z m-40 -35 c0 -6 -4 -13 -10 -16 -5 -3 -10 -14 -10 -23 0 -14 1 -14
13 0 21 27 72 11 127 -41 28 -26 50 -52 50 -57 0 -6 -11 -17 -25 -24 -32 -17
-113 -115 -121 -146 -3 -13 -10 -24 -15 -24 -5 0 -9 -7 -9 -15 0 -25 -17 -17
-28 14 -6 16 -26 53 -44 83 -42 65 -73 150 -65 173 10 24 40 14 47 -15 3 -14
12 -25 20 -25 11 0 14 11 12 45 -2 36 1 47 20 62 26 20 38 23 38 9z m-400 -21
c0 -4 -12 -7 -27 -5 -16 2 -32 1 -36 -2 -14 -9 -97 -9 -97 -1 0 4 10 8 23 9
39 1 112 10 116 14 6 6 21 -5 21 -15z m-140 -89 c0 -9 -10 -22 -21 -30 -20
-12 -21 -11 -16 8 3 12 1 21 -4 21 -6 0 -4 6 3 14 16 17 38 10 38 -13z m339
-53 c43 -74 68 -115 132 -210 20 -29 40 -64 44 -77 5 -17 9 -20 15 -11 11 17
41 5 34 -13 -5 -15 43 -56 68 -58 7 0 4 -4 -7 -9 -11 -4 -24 -4 -30 1 -5 5
-17 9 -27 9 -10 0 -18 4 -18 10 0 5 -6 7 -13 4 -8 -3 -22 13 -35 38 -12 24
-40 68 -63 98 -22 30 -56 78 -75 105 -18 28 -42 61 -51 75 -16 22 -16 23 -1
18 13 -5 12 1 -7 35 -20 35 -24 57 -10 57 2 0 22 -33 44 -72z m934 -7 c12 -13
54 -44 92 -69 64 -42 189 -143 225 -184 8 -9 48 -42 88 -72 51 -38 80 -68 95
-98 12 -24 25 -44 29 -46 4 -2 8 -10 8 -17 0 -8 7 -20 15 -28 8 -9 17 -41 19
-74 2 -32 5 -61 5 -65 1 -4 13 -7 27 -6 19 2 35 15 53 42 23 35 26 50 27 135
1 79 -2 103 -19 136 -12 22 -21 42 -22 45 0 3 -4 11 -9 19 -6 9 2 8 23 -5 47
-28 71 -86 72 -175 1 -87 -16 -141 -65 -208 -46 -62 -95 -89 -130 -73 -25 11
-26 16 -26 90 0 107 -25 129 -87 75 -64 -57 -249 -200 -264 -206 -13 -4 -15
-15 -11 -55 6 -69 -11 -75 -59 -21 -41 46 -92 129 -104 167 -5 16 -2 22 10 22
9 0 -6 19 -37 47 -68 59 -85 93 -48 93 33 0 111 -57 152 -112 54 -73 79 -98
89 -92 5 3 9 -2 9 -10 0 -12 14 -7 53 21 112 78 210 163 188 163 -17 0 -13 70
4 76 29 11 16 50 -29 90 -90 79 -109 94 -118 94 -5 0 -35 24 -66 53 -31 29
-75 66 -97 82 -52 38 -156 126 -172 145 -10 12 -6 21 20 46 25 25 33 28 35 15
2 -9 14 -27 25 -40z m-1303 -11 c0 -5 -9 -10 -20 -10 -11 0 -20 5 -20 10 0 6
9 10 20 10 11 0 20 -4 20 -10z m1938 -346 c-4 -3 -12 5 -18 18 -12 22 -12 22
6 6 10 -10 15 -20 12 -24z m-1298 -62 c3 -2 7 -154 10 -338 5 -320 4 -335 -14
-340 -10 -3 -22 -1 -26 6 -4 7 -17 9 -33 4 l-27 -6 0 299 c0 165 3 327 6 360
l7 61 36 -21 c20 -11 38 -22 41 -25z m1690 38 c0 -5 -2 -10 -4 -10 -3 0 -8 5
-11 10 -3 6 -1 10 4 10 6 0 11 -4 11 -10z m30 0 c0 -5 -4 -10 -10 -10 -5 0
-10 5 -10 10 0 6 5 10 10 10 6 0 10 -4 10 -10z m-2453 -122 c-2 -24 -4 -7 -4
37 0 44 2 63 4 43 2 -21 2 -57 0 -80z m1763 -71 c0 -7 -16 -20 -36 -29 l-36
-17 28 30 c30 31 44 37 44 16z m-91 -73 c-17 -21 -104 -81 -95 -65 7 11 96 80
105 81 2 0 -2 -7 -10 -16z m-971 -493 c9 -5 35 -13 57 -18 56 -11 89 -61 81
-121 -8 -58 -31 -99 -69 -122 -39 -24 -66 -25 -114 -5 -45 19 -59 37 -79 102
-14 49 -14 55 4 95 20 47 36 63 67 71 32 8 34 7 53 -2z m-691 -743 c-2 -24 -4
-7 -4 37 0 44 2 63 4 43 2 -21 2 -57 0 -80z"/>
<path d="M6203 6381 c0 -11 5 -17 9 -15 11 7 10 34 -1 34 -6 0 -9 -9 -8 -19z"/>
<path d="M6023 6452 l-22 -27 26 -7 c30 -8 43 3 43 40 0 30 -20 28 -47 -6z
m17 -12 c0 -5 -5 -10 -11 -10 -5 0 -7 5 -4 10 3 6 8 10 11 10 2 0 4 -4 4 -10z"/>
<path d="M6938 6443 c7 -3 16 -2 19 1 4 3 -2 6 -13 5 -11 0 -14 -3 -6 -6z"/>
<path d="M6205 5120 c3 -5 8 -10 11 -10 2 0 4 5 4 10 0 6 -5 10 -11 10 -5 0
-7 -4 -4 -10z"/>
<path d="M6211 5091 c-16 -10 -11 -43 8 -49 9 -3 11 0 6 8 -4 7 -2 16 6 21 9
5 10 12 4 18 -6 6 -16 7 -24 2z"/>
<path d="M6170 5080 c0 -5 5 -10 11 -10 5 0 7 5 4 10 -3 6 -8 10 -11 10 -2 0
-4 -4 -4 -10z"/>
<path d="M6240 5051 c0 -6 6 -11 14 -11 8 0 16 -5 18 -11 2 -7 9 -10 16 -8 16
6 1 25 -25 33 -14 5 -23 3 -23 -3z"/>
<path d="M6070 5959 c0 -5 5 -7 10 -4 6 3 10 8 10 11 0 2 -4 4 -10 4 -5 0 -10
-5 -10 -11z"/>
<path d="M5968 5473 c7 -3 16 -2 19 1 4 3 -2 6 -13 5 -11 0 -14 -3 -6 -6z"/>
<path d="M6106 4139 c-13 -8 -15 -13 -6 -19 9 -6 9 -13 1 -28 -6 -11 -11 -29
-11 -40 0 -25 39 -74 54 -69 6 2 23 0 39 -4 16 -5 27 -4 27 2 0 6 10 7 23 4
18 -6 20 -5 10 6 -17 17 -16 30 1 23 8 -3 17 0 21 6 10 16 -15 70 -32 70 -8 0
-11 -4 -8 -10 4 -6 -7 -10 -25 -10 -17 0 -40 -5 -51 -10 -15 -9 -19 -7 -19 5
0 9 7 18 15 21 8 4 15 12 15 19 0 12 21 25 40 25 5 0 25 -14 45 -31 28 -25 35
-38 35 -68 0 -80 -85 -109 -163 -56 -28 20 -37 22 -37 11 0 -19 37 -55 70 -68
60 -23 135 26 147 95 11 70 -57 137 -139 137 -18 0 -41 -5 -52 -11z"/>
<path d="M6970 8300 c-22 -14 0 -29 33 -23 25 5 26 6 10 19 -22 16 -24 16 -43
4z"/>
<path d="M6196 8019 c-7 -37 -25 -200 -36 -344 -6 -71 -13 -143 -16 -160 -6
-28 -5 -29 9 -10 27 36 37 98 37 225 0 69 5 165 10 215 9 84 7 125 -4 74z"/>
<path d="M7351 7954 c0 -11 3 -14 6 -6 3 7 2 16 -1 19 -3 4 -6 -2 -5 -13z"/>
<path d="M5171 7208 c1 -65 4 -84 9 -63 12 45 12 155 0 155 -6 0 -10 -37 -9
-92z"/>
<path d="M7797 6864 c-3 -3 -3 -13 0 -21 5 -12 7 -12 14 -1 15 23 4 40 -14 22z"/>
<path d="M7757 6834 c-4 -4 -7 -14 -7 -23 0 -11 3 -12 11 -4 6 6 10 16 7 23
-2 6 -7 8 -11 4z"/>
<path d="M6466 6586 c3 -9 11 -16 16 -16 13 0 5 23 -10 28 -7 2 -10 -2 -6 -12z"/>
<path d="M6488 6515 c2 -19 9 -38 15 -42 7 -4 8 0 4 11 -4 10 -7 29 -7 42 0
13 -4 24 -8 24 -4 0 -6 -16 -4 -35z"/>
<path d="M4429 6407 c6 -8 8 -17 4 -20 -3 -4 1 -7 10 -7 21 0 21 7 3 26 -18
18 -32 19 -17 1z"/>
<path d="M4358 6389 c-20 -21 -23 -39 -8 -39 5 0 16 14 25 30 17 34 9 38 -17
9z"/>
<path d="M4480 6378 c0 -4 7 -8 15 -8 8 0 15 -5 15 -12 0 -6 3 -8 6 -5 4 3 14
2 23 -2 12 -7 19 -4 27 12 9 21 7 22 -38 22 -26 1 -48 -3 -48 -7z"/>
<path d="M4280 6366 c0 -2 9 -6 20 -9 11 -3 20 -1 20 4 0 5 -9 9 -20 9 -11 0
-20 -2 -20 -4z"/>
<path d="M4405 6360 c3 -5 8 -10 11 -10 2 0 4 5 4 10 0 6 -5 10 -11 10 -5 0
-7 -4 -4 -10z"/>
<path d="M4437 6320 c3 -11 14 -20 25 -20 22 0 16 15 -12 30 -15 8 -17 7 -13
-10z"/>
<path d="M4339 6317 c15 -19 76 -23 86 -7 3 6 -3 10 -13 10 -11 0 -35 3 -53 7
-31 6 -33 5 -20 -10z"/>
<path d="M4537 6323 c-4 -3 -7 -13 -7 -22 1 -13 3 -13 11 2 11 19 8 33 -4 20z"/>
<path d="M4310 6276 c0 -8 5 -18 10 -21 6 -3 10 1 10 9 0 8 -4 18 -10 21 -5 3
-10 -1 -10 -9z"/>
<path d="M5142 6250 c0 -14 2 -19 5 -12 2 6 2 18 0 25 -3 6 -5 1 -5 -13z"/>
<path d="M5144 5985 c0 -60 1 -84 3 -52 2 32 2 81 0 110 -2 29 -3 3 -3 -58z"/>
<path d="M2998 5973 c-2 -21 -12 -32 -40 -45 -42 -20 -54 -48 -44 -103 14 -74
113 -102 175 -49 25 21 31 34 31 64 0 61 -15 90 -46 90 -29 0 -53 24 -54 53 0
28 -18 20 -22 -10z"/>
<path d="M5152 5845 c0 -16 2 -22 5 -12 2 9 2 23 0 30 -3 6 -5 -1 -5 -18z"/>
<path d="M5164 5442 c-6 -4 -10 -18 -8 -32 1 -14 3 -46 3 -72 1 -27 6 -48 11
-48 6 0 10 17 10 38 0 20 2 56 6 80 6 41 1 49 -22 34z"/>
<path d="M9130 5378 c1 -7 14 -31 30 -53 16 -22 41 -59 56 -82 14 -24 29 -43
33 -43 4 0 18 -21 31 -47 13 -27 30 -55 38 -63 8 -8 22 -30 31 -50 21 -46 110
-182 130 -197 11 -10 104 -13 388 -13 l373 0 0 45 c0 25 -4 45 -10 45 -5 0
-10 9 -10 20 0 11 5 20 10 20 6 0 10 32 10 75 0 87 -9 93 -58 42 -39 -41 -40
-47 -3 -47 26 0 30 -3 29 -30 l-1 -30 -304 0 -303 0 0 80 0 80 268 -2 267 -3
3 -22 c2 -13 6 -23 8 -23 3 0 25 15 49 33 44 32 44 32 45 95 l0 62 -389 0
-390 0 -60 50 c-33 27 -62 54 -66 60 -10 15 -205 13 -205 -2z"/>
<path d="M3934 4640 c-26 -10 -74 -66 -75 -88 -6 -86 40 -132 132 -132 54 0
119 61 119 112 0 80 -98 140 -176 108z"/>
<path d="M5164 4000 c0 -63 1 -89 3 -57 2 31 2 83 0 115 -2 31 -3 5 -3 -58z"/>
<path d="M5154 3730 c0 -69 1 -97 3 -62 2 34 2 90 0 125 -2 34 -3 6 -3 -63z"/>

</g>
</svg>
